<svg width="12" height="12" viewBox="0 0 12 12" fill="none" xmlns="http://www.w3.org/2000/svg">
<path d="M10.375 1.25H9.0625V0.8125C9.0625 0.696468 9.01641 0.585188 8.93436 0.503141C8.85231 0.421094 8.74103 0.375 8.625 0.375C8.50897 0.375 8.39769 0.421094 8.31564 0.503141C8.23359 0.585188 8.1875 0.696468 8.1875 0.8125V1.25H3.8125V0.8125C3.8125 0.696468 3.76641 0.585188 3.68436 0.503141C3.60231 0.421094 3.49103 0.375 3.375 0.375C3.25897 0.375 3.14769 0.421094 3.06564 0.503141C2.98359 0.585188 2.9375 0.696468 2.9375 0.8125V1.25H1.625C1.39294 1.25 1.17038 1.34219 1.00628 1.50628C0.842187 1.67038 0.75 1.89294 0.75 2.125V10.875C0.75 11.1071 0.842187 11.3296 1.00628 11.4937C1.17038 11.6578 1.39294 11.75 1.625 11.75H10.375C10.6071 11.75 10.8296 11.6578 10.9937 11.4937C11.1578 11.3296 11.25 11.1071 11.25 10.875V2.125C11.25 1.89294 11.1578 1.67038 10.9937 1.50628C10.8296 1.34219 10.6071 1.25 10.375 1.25ZM2.9375 2.125V2.5625C2.9375 2.67853 2.98359 2.78981 3.06564 2.87186C3.14769 2.95391 3.25897 3 3.375 3C3.49103 3 3.60231 2.95391 3.68436 2.87186C3.76641 2.78981 3.8125 2.67853 3.8125 2.5625V2.125H8.1875V2.5625C8.1875 2.67853 8.23359 2.78981 8.31564 2.87186C8.39769 2.95391 8.50897 3 8.625 3C8.74103 3 8.85231 2.95391 8.93436 2.87186C9.01641 2.78981 9.0625 2.67853 9.0625 2.5625V2.125H10.375V3.875H1.625V2.125H2.9375ZM10.375 10.875H1.625V4.75H10.375V10.875ZM6.875 7.8125C6.875 7.98556 6.82368 8.15473 6.72754 8.29862C6.63139 8.44252 6.49473 8.55467 6.33485 8.62089C6.17496 8.68712 5.99903 8.70445 5.8293 8.67069C5.65956 8.63693 5.50365 8.55359 5.38128 8.43122C5.25891 8.30885 5.17557 8.15294 5.14181 7.9832C5.10805 7.81347 5.12538 7.63754 5.19161 7.47765C5.25783 7.31777 5.36998 7.18111 5.51388 7.08496C5.65777 6.98882 5.82694 6.9375 6 6.9375C6.23206 6.9375 6.45462 7.02969 6.61872 7.19378C6.78281 7.35788 6.875 7.58044 6.875 7.8125Z" fill="#C3C3C4"/>
</svg>
