<svg width="12" height="13" viewBox="0 0 12 13" fill="none" xmlns="http://www.w3.org/2000/svg">
<path d="M8.23605 5.04081C8.27672 5.08144 8.30899 5.12969 8.33101 5.18281C8.35303 5.23592 8.36436 5.29285 8.36436 5.35034C8.36436 5.40784 8.35303 5.46477 8.33101 5.51788C8.30899 5.57099 8.27672 5.61924 8.23605 5.65987L5.17355 8.72237C5.13292 8.76305 5.08466 8.79532 5.03155 8.81734C4.97844 8.83935 4.92151 8.85069 4.86402 8.85069C4.80652 8.85069 4.74959 8.83935 4.69648 8.81734C4.64337 8.79532 4.59512 8.76305 4.55448 8.72237L3.24198 7.40987C3.15989 7.32778 3.11377 7.21644 3.11377 7.10034C3.11377 6.98425 3.15989 6.8729 3.24198 6.79081C3.32408 6.70872 3.43542 6.6626 3.55152 6.6626C3.66761 6.6626 3.77895 6.70872 3.86105 6.79081L4.86402 7.79433L7.61698 5.04081C7.65762 5.00013 7.70587 4.96786 7.75898 4.94585C7.81209 4.92383 7.86902 4.9125 7.92652 4.9125C7.98401 4.9125 8.04094 4.92383 8.09405 4.94585C8.14716 4.96786 8.19542 5.00013 8.23605 5.04081ZM11.4265 6.66284C11.4265 7.78772 11.0929 8.88734 10.468 9.82265C9.84305 10.758 8.95478 11.4869 7.91553 11.9174C6.87627 12.3479 5.73271 12.4605 4.62944 12.2411C3.52617 12.0216 2.51276 11.4799 1.71735 10.6845C0.921935 9.8891 0.380253 8.87569 0.1608 7.77242C-0.0586535 6.66915 0.053978 5.52558 0.484451 4.48633C0.914925 3.44707 1.64391 2.55881 2.57921 1.93386C3.51452 1.30891 4.61413 0.975342 5.73902 0.975342C7.24695 0.976934 8.69266 1.57666 9.75893 2.64293C10.8252 3.7092 11.4249 5.15491 11.4265 6.66284ZM10.5515 6.66284C10.5515 5.71102 10.2693 4.78057 9.74046 3.98916C9.21166 3.19775 8.46005 2.58092 7.58068 2.21667C6.70131 1.85242 5.73368 1.75712 4.80014 1.94281C3.86661 2.1285 3.00911 2.58685 2.33606 3.25989C1.66302 3.93293 1.20468 4.79044 1.01899 5.72397C0.833296 6.6575 0.928599 7.62514 1.29285 8.50451C1.65709 9.38388 2.27392 10.1355 3.06533 10.6643C3.85675 11.1931 4.78719 11.4753 5.73902 11.4753C7.01493 11.4739 8.23816 10.9664 9.14037 10.0642C10.0426 9.16199 10.5501 7.93875 10.5515 6.66284Z" fill="#C3C3C4"/>
</svg>
