<svg width="18" height="18" viewBox="0 0 18 18" fill="none" xmlns="http://www.w3.org/2000/svg">
<path d="M13.2806 6.21937C13.3504 6.28903 13.4057 6.37175 13.4434 6.46279C13.4812 6.55384 13.5006 6.65144 13.5006 6.75C13.5006 6.84856 13.4812 6.94616 13.4434 7.03721C13.4057 7.12825 13.3504 7.21097 13.2806 7.28063L8.03063 12.5306C7.96097 12.6004 7.87825 12.6557 7.78721 12.6934C7.69616 12.7312 7.59856 12.7506 7.5 12.7506C7.40144 12.7506 7.30384 12.7312 7.21279 12.6934C7.12175 12.6557 7.03903 12.6004 6.96937 12.5306L4.71937 10.2806C4.57864 10.1399 4.49958 9.94902 4.49958 9.75C4.49958 9.55098 4.57864 9.36011 4.71937 9.21937C4.86011 9.07864 5.05098 8.99958 5.25 8.99958C5.44902 8.99958 5.63989 9.07864 5.78063 9.21937L7.5 10.9397L12.2194 6.21937C12.289 6.14964 12.3717 6.09432 12.4628 6.05658C12.5538 6.01884 12.6514 5.99941 12.75 5.99941C12.8486 5.99941 12.9462 6.01884 13.0372 6.05658C13.1283 6.09432 13.211 6.14964 13.2806 6.21937ZM18 1.5V16.5C18 16.8978 17.842 17.2794 17.5607 17.5607C17.2794 17.842 16.8978 18 16.5 18H1.5C1.10218 18 0.720644 17.842 0.43934 17.5607C0.158035 17.2794 0 16.8978 0 16.5V1.5C0 1.10218 0.158035 0.720644 0.43934 0.43934C0.720644 0.158035 1.10218 0 1.5 0H16.5C16.8978 0 17.2794 0.158035 17.5607 0.43934C17.842 0.720644 18 1.10218 18 1.5ZM16.5 16.5V1.5H1.5V16.5H16.5Z" fill="#434345"/>
</svg>
