<svg width="15" height="3" viewBox="0 0 15 3" fill="none" xmlns="http://www.w3.org/2000/svg">
<path d="M7.26099 2.86401C7.88231 2.86401 8.38599 2.36033 8.38599 1.73901C8.38599 1.11769 7.88231 0.614014 7.26099 0.614014C6.63967 0.614014 6.13599 1.11769 6.13599 1.73901C6.13599 2.36033 6.63967 2.86401 7.26099 2.86401Z" fill="#434345"/>
<path d="M13.261 2.86401C13.8823 2.86401 14.386 2.36033 14.386 1.73901C14.386 1.11769 13.8823 0.614014 13.261 0.614014C12.6397 0.614014 12.136 1.11769 12.136 1.73901C12.136 2.36033 12.6397 2.86401 13.261 2.86401Z" fill="#434345"/>
<path d="M1.26099 2.86401C1.88231 2.86401 2.38599 2.36033 2.38599 1.73901C2.38599 1.11769 1.88231 0.614014 1.26099 0.614014C0.639666 0.614014 0.135986 1.11769 0.135986 1.73901C0.135986 2.36033 0.639666 2.86401 1.26099 2.86401Z" fill="#434345"/>
</svg>
