<svg width="20" height="18" viewBox="0 0 20 18" fill="none" xmlns="http://www.w3.org/2000/svg">
<path d="M4.75 6.75C4.75 6.55109 4.82902 6.36032 4.96967 6.21967C5.11032 6.07902 5.30109 6 5.5 6H14.5C14.6989 6 14.8897 6.07902 15.0303 6.21967C15.171 6.36032 15.25 6.55109 15.25 6.75C15.25 6.94891 15.171 7.13968 15.0303 7.28033C14.8897 7.42098 14.6989 7.5 14.5 7.5H5.5C5.30109 7.5 5.11032 7.42098 4.96967 7.28033C4.82902 7.13968 4.75 6.94891 4.75 6.75ZM5.5 10.5H14.5C14.6989 10.5 14.8897 10.421 15.0303 10.2803C15.171 10.1397 15.25 9.94891 15.25 9.75C15.25 9.55109 15.171 9.36032 15.0303 9.21967C14.8897 9.07902 14.6989 9 14.5 9H5.5C5.30109 9 5.11032 9.07902 4.96967 9.21967C4.82902 9.36032 4.75 9.55109 4.75 9.75C4.75 9.94891 4.82902 10.1397 4.96967 10.2803C5.11032 10.421 5.30109 10.5 5.5 10.5ZM19.75 2.25V16.5C19.7499 16.6278 19.7172 16.7535 19.6549 16.8651C19.5926 16.9768 19.5028 17.0706 19.394 17.1378C19.2853 17.2049 19.1611 17.2432 19.0334 17.2489C18.9057 17.2546 18.7787 17.2275 18.6644 17.1703L16 15.8381L13.3356 17.1703C13.2314 17.2225 13.1165 17.2496 13 17.2496C12.8835 17.2496 12.7686 17.2225 12.6644 17.1703L10 15.8381L7.33563 17.1703C7.23143 17.2225 7.11651 17.2496 7 17.2496C6.88349 17.2496 6.76857 17.2225 6.66437 17.1703L4 15.8381L1.33563 17.1703C1.22131 17.2275 1.09427 17.2546 0.966569 17.2489C0.838867 17.2432 0.71474 17.2049 0.605974 17.1378C0.497208 17.0706 0.407411 16.9768 0.345109 16.8651C0.282807 16.7535 0.250068 16.6278 0.25 16.5V2.25C0.25 1.85218 0.408035 1.47064 0.68934 1.18934C0.970644 0.908035 1.35218 0.75 1.75 0.75H18.25C18.6478 0.75 19.0294 0.908035 19.3107 1.18934C19.592 1.47064 19.75 1.85218 19.75 2.25ZM18.25 2.25H1.75V15.2869L3.66437 14.3287C3.76857 14.2766 3.88349 14.2495 4 14.2495C4.11651 14.2495 4.23143 14.2766 4.33563 14.3287L7 15.6619L9.66437 14.3287C9.76857 14.2766 9.88349 14.2495 10 14.2495C10.1165 14.2495 10.2314 14.2766 10.3356 14.3287L13 15.6619L15.6644 14.3287C15.7686 14.2766 15.8835 14.2495 16 14.2495C16.1165 14.2495 16.2314 14.2766 16.3356 14.3287L18.25 15.2869V2.25Z" fill="#434345"/>
</svg>
