<svg width="22" height="16" viewBox="0 0 22 16" fill="none" xmlns="http://www.w3.org/2000/svg">
<path d="M20.75 5.75C20.9489 5.75 21.1397 5.67098 21.2803 5.53033C21.421 5.38968 21.5 5.19891 21.5 5V2C21.5 1.60218 21.342 1.22064 21.0607 0.93934C20.7794 0.658035 20.3978 0.5 20 0.5H2C1.60218 0.5 1.22064 0.658035 0.93934 0.93934C0.658035 1.22064 0.5 1.60218 0.5 2V5C0.5 5.19891 0.579018 5.38968 0.71967 5.53033C0.860322 5.67098 1.05109 5.75 1.25 5.75C1.84674 5.75 2.41903 5.98705 2.84099 6.40901C3.26295 6.83097 3.5 7.40326 3.5 8C3.5 8.59674 3.26295 9.16903 2.84099 9.59099C2.41903 10.0129 1.84674 10.25 1.25 10.25C1.05109 10.25 0.860322 10.329 0.71967 10.4697C0.579018 10.6103 0.5 10.8011 0.5 11V14C0.5 14.3978 0.658035 14.7794 0.93934 15.0607C1.22064 15.342 1.60218 15.5 2 15.5H20C20.3978 15.5 20.7794 15.342 21.0607 15.0607C21.342 14.7794 21.5 14.3978 21.5 14V11C21.5 10.8011 21.421 10.6103 21.2803 10.4697C21.1397 10.329 20.9489 10.25 20.75 10.25C20.1533 10.25 19.581 10.0129 19.159 9.59099C18.7371 9.16903 18.5 8.59674 18.5 8C18.5 7.40326 18.7371 6.83097 19.159 6.40901C19.581 5.98705 20.1533 5.75 20.75 5.75ZM2 11.675C2.84772 11.5029 3.60986 11.043 4.15728 10.3732C4.70471 9.70344 5.00376 8.86502 5.00376 8C5.00376 7.13498 4.70471 6.29657 4.15728 5.62681C3.60986 4.95705 2.84772 4.49714 2 4.325V2H7.25V14H2V11.675ZM20 11.675V14H8.75V2H20V4.325C19.1523 4.49714 18.3901 4.95705 17.8427 5.62681C17.2953 6.29657 16.9962 7.13498 16.9962 8C16.9962 8.86502 17.2953 9.70344 17.8427 10.3732C18.3901 11.043 19.1523 11.5029 20 11.675Z" fill="#F26CF9"/>
</svg>
