<svg width="123" height="32" viewBox="0 0 123 32" fill="none" xmlns="http://www.w3.org/2000/svg">
<path d="M40.4432 7.54545L45.3011 21.7614H45.4972L50.3551 7.54545H53.2017L46.9205 25H43.8778L37.5966 7.54545H40.4432ZM59.8473 25.2642C58.5575 25.2642 57.4467 24.9886 56.5149 24.4375C55.5888 23.8807 54.8729 23.0994 54.3672 22.0938C53.8672 21.0824 53.6172 19.8977 53.6172 18.5398C53.6172 17.1989 53.8672 16.017 54.3672 14.9943C54.8729 13.9716 55.5774 13.1733 56.4808 12.5994C57.3899 12.0256 58.4524 11.7386 59.6683 11.7386C60.407 11.7386 61.1229 11.8608 61.8161 12.1051C62.5092 12.3494 63.1314 12.733 63.6825 13.2557C64.2337 13.7784 64.6683 14.4574 64.9865 15.2926C65.3047 16.1222 65.4638 17.1307 65.4638 18.3182V19.2216H55.0575V17.3125H62.9666C62.9666 16.642 62.8303 16.0483 62.5575 15.5312C62.2848 15.0085 61.9013 14.5966 61.407 14.2955C60.9183 13.9943 60.3445 13.8438 59.6854 13.8438C58.9695 13.8438 58.3445 14.0199 57.8104 14.3722C57.282 14.7187 56.8729 15.1733 56.5831 15.7358C56.299 16.2926 56.157 16.8977 56.157 17.5511V19.0426C56.157 19.9176 56.3104 20.6619 56.6172 21.2756C56.9297 21.8892 57.3643 22.358 57.9212 22.6818C58.478 23 59.1286 23.1591 59.8729 23.1591C60.3558 23.1591 60.7962 23.0909 61.1939 22.9545C61.5916 22.8125 61.9354 22.6023 62.2251 22.3239C62.5149 22.0455 62.7365 21.7017 62.8899 21.2926L65.3018 21.7273C65.1087 22.4375 64.7621 23.0597 64.2621 23.5938C63.7678 24.1222 63.1456 24.5341 62.3956 24.8295C61.6513 25.1193 60.8018 25.2642 59.8473 25.2642ZM70.8395 17.2273V25H68.2912V11.9091H70.7372V14.0398H70.8991C71.2003 13.3466 71.6719 12.7898 72.3139 12.3693C72.9616 11.9489 73.777 11.7386 74.7599 11.7386C75.652 11.7386 76.4332 11.9261 77.1037 12.3011C77.7741 12.6705 78.294 13.2216 78.6634 13.9545C79.0327 14.6875 79.2173 15.5937 79.2173 16.6733V25H76.669V16.9801C76.669 16.0312 76.4219 15.2898 75.9276 14.7557C75.4332 14.2159 74.7543 13.946 73.8906 13.946C73.2997 13.946 72.7741 14.0739 72.3139 14.3295C71.8594 14.5852 71.4986 14.9602 71.2315 15.4545C70.9702 15.9432 70.8395 16.5341 70.8395 17.2273ZM88.7457 11.9091V13.9545H81.5952V11.9091H88.7457ZM83.5128 8.77273H86.0611V21.1562C86.0611 21.6506 86.1349 22.0227 86.2827 22.2727C86.4304 22.517 86.6207 22.6847 86.8537 22.7756C87.0923 22.8608 87.3509 22.9034 87.6293 22.9034C87.8338 22.9034 88.0128 22.8892 88.1662 22.8608C88.3196 22.8324 88.4389 22.8097 88.5241 22.7926L88.9844 24.8977C88.8366 24.9545 88.6264 25.0114 88.3537 25.0682C88.081 25.1307 87.7401 25.1648 87.331 25.1705C86.6605 25.1818 86.0355 25.0625 85.456 24.8125C84.8764 24.5625 84.4077 24.1761 84.0497 23.6534C83.6918 23.1307 83.5128 22.4744 83.5128 21.6847V8.77273ZM91.5646 25V11.9091H94.1129V25H91.5646ZM92.8516 9.8892C92.4084 9.8892 92.0277 9.74148 91.7095 9.44602C91.397 9.14489 91.2408 8.78693 91.2408 8.37216C91.2408 7.9517 91.397 7.59375 91.7095 7.29829C92.0277 6.99716 92.4084 6.84659 92.8516 6.84659C93.2947 6.84659 93.6726 6.99716 93.9851 7.29829C94.3033 7.59375 94.4624 7.9517 94.4624 8.37216C94.4624 8.78693 94.3033 9.14489 93.9851 9.44602C93.6726 9.74148 93.2947 9.8892 92.8516 9.8892ZM99.5526 11.9091L102.442 17.0057L105.357 11.9091H108.143L104.061 18.4545L108.178 25H105.391L102.442 20.108L99.5014 25H96.706L100.78 18.4545L96.7571 11.9091H99.5526ZM115.886 25.2642C114.597 25.2642 113.486 24.9886 112.554 24.4375C111.628 23.8807 110.912 23.0994 110.406 22.0938C109.906 21.0824 109.656 19.8977 109.656 18.5398C109.656 17.1989 109.906 16.017 110.406 14.9943C110.912 13.9716 111.616 13.1733 112.52 12.5994C113.429 12.0256 114.491 11.7386 115.707 11.7386C116.446 11.7386 117.162 11.8608 117.855 12.1051C118.548 12.3494 119.17 12.733 119.722 13.2557C120.273 13.7784 120.707 14.4574 121.026 15.2926C121.344 16.1222 121.503 17.1307 121.503 18.3182V19.2216H111.097V17.3125H119.006C119.006 16.642 118.869 16.0483 118.597 15.5312C118.324 15.0085 117.94 14.5966 117.446 14.2955C116.957 13.9943 116.384 13.8438 115.724 13.8438C115.009 13.8438 114.384 14.0199 113.849 14.3722C113.321 14.7187 112.912 15.1733 112.622 15.7358C112.338 16.2926 112.196 16.8977 112.196 17.5511V19.0426C112.196 19.9176 112.349 20.6619 112.656 21.2756C112.969 21.8892 113.403 22.358 113.96 22.6818C114.517 23 115.168 23.1591 115.912 23.1591C116.395 23.1591 116.835 23.0909 117.233 22.9545C117.631 22.8125 117.974 22.6023 118.264 22.3239C118.554 22.0455 118.776 21.7017 118.929 21.2926L121.341 21.7273C121.148 22.4375 120.801 23.0597 120.301 23.5938C119.807 24.1222 119.185 24.5341 118.435 24.8295C117.69 25.1193 116.841 25.2642 115.886 25.2642Z" fill="#1C2346"/>
<path fill-rule="evenodd" clip-rule="evenodd" d="M5.20134 17.5303L10 28.0001H5H2V27.4632C2 25.8381 2.33009 24.2299 2.97026 22.7361L5.20134 17.5303ZM20.7987 17.5303L16 28.0001H21H24L24 27.4632C24 25.8381 23.6699 24.2299 23.0297 22.7361L20.7987 17.5303Z" fill="#37437D"/>
<path fill-rule="evenodd" clip-rule="evenodd" d="M10.3762 26.5444C10.8883 25.6233 11.8714 25 13 25C14.1287 25 15.1117 25.6233 15.6238 26.5444L23.0297 9.26394C23.6699 7.77022 24 6.16203 24 4.53691V4H16C16 5.65686 14.6569 7 13 7C11.3431 7 10 5.65685 10 4H2V4.53691C2 6.16203 2.33009 7.77022 2.97026 9.26394L10.3762 26.5444Z" fill="#F26CF9"/>
</svg>
