<svg width="302" height="231" viewBox="0 0 302 231" fill="none" xmlns="http://www.w3.org/2000/svg">
<g clip-path="url(#clip0_375_24660)">
<path d="M380.253 -47H-140.792V474.045H380.253V-47Z" fill="#EEEFFF"/>
<path d="M93.0816 28.2425C96.2935 14.4879 87.747 0.733784 73.9924 -2.47816C60.2378 -5.69011 46.4837 2.85638 43.2718 16.611C40.0599 30.3656 48.6063 44.1197 62.3609 47.3316C76.1155 50.5436 89.8696 41.9971 93.0816 28.2425Z" fill="#8CC63F"/>
<path d="M68.9395 77.4025L69.3604 270.964L192.925 212.273L68.9395 77.4025Z" fill="#8CC63F"/>
<path d="M101.934 196.879C99.7073 196.879 97.6315 197.505 95.8526 198.574C94.9929 197.33 93.559 196.511 91.9313 196.511C89.2989 196.511 87.1647 198.645 87.1647 201.278C87.1647 201.939 87.3013 202.57 87.5451 203.143C84.4459 204.204 82.2148 207.135 82.2148 210.594C82.2148 210.822 82.2294 211.046 82.2492 211.269C80.7913 212.603 79.8701 214.515 79.8701 216.647C79.8701 218.919 80.9091 220.948 82.5368 222.286C82.3336 223.075 82.2148 223.896 82.2148 224.749C82.2148 230.194 86.6291 234.608 92.074 234.608C95.4525 234.608 98.4318 232.906 100.209 230.315C101.62 231.347 103.354 231.963 105.236 231.963C109.951 231.963 113.773 228.141 113.773 223.425C113.773 220.738 112.529 218.343 110.587 216.778C112.558 214.663 113.773 211.835 113.773 208.716C113.773 202.179 108.472 196.879 101.934 196.879Z" fill="#39B54A"/>
<path d="M143.768 201.279C143.329 201.279 142.901 201.326 142.488 201.413C141.11 198.724 138.315 196.879 135.085 196.879C130.505 196.879 126.791 200.579 126.766 205.154C125.211 206.088 124.159 207.774 124.159 209.721C124.159 212.67 126.551 215.061 129.5 215.061C129.643 215.061 129.777 215.03 129.917 215.02C130.986 218.236 134.013 220.557 137.589 220.557C141.755 220.557 145.183 217.406 145.626 213.358C148.132 212.57 149.951 210.228 149.951 207.46C149.95 204.045 147.182 201.279 143.768 201.279Z" fill="#39B54A"/>
<path d="M133.864 190.436C135.525 191.601 137.543 192.29 139.725 192.29C145.372 192.29 149.951 187.712 149.951 182.064C149.951 176.696 145.812 172.302 140.552 171.879C139.513 167.524 135.607 164.282 130.933 164.282C125.465 164.282 121.033 168.714 121.033 174.182C121.033 176.376 121.755 178.395 122.963 180.037C121.009 181.429 119.73 183.707 119.73 186.289C119.73 190.53 123.168 193.967 127.409 193.967C130.12 193.968 132.498 192.559 133.864 190.436Z" fill="#39B54A"/>
<path d="M101.68 161.94C106.424 159.962 108.666 154.513 106.688 149.77C104.711 145.026 99.2618 142.783 94.518 144.761C89.7743 146.739 87.5319 152.188 89.5096 156.931C91.4873 161.675 96.9361 163.917 101.68 161.94Z" fill="#DDDEED"/>
<path d="M101.067 160.489C105 158.852 106.86 154.337 105.223 150.405C103.586 146.473 99.0711 144.613 95.1387 146.251C91.2064 147.888 89.3457 152.403 90.9828 156.335C92.62 160.267 97.1349 162.127 101.067 160.489Z" fill="#F7F7F7"/>
<path d="M101.906 153.358C101.906 155.462 100.2 157.168 98.096 157.168C95.992 157.168 94.2861 155.462 94.2861 153.358C94.2861 151.254 95.992 149.548 98.096 149.548C100.2 149.548 101.906 151.254 101.906 153.358Z" fill="#DDDEED"/>
<path d="M120.975 -15.6697H100.434V6.97701H120.975V-15.6697Z" fill="#DDDEED"/>
<path d="M174.882 -15.6697H124.609V6.97701H174.882V-15.6697Z" fill="#DDDEED"/>
<path d="M221.722 -15.6697H178.516V6.97701H221.722V-15.6697Z" fill="#DDDEED"/>
<path d="M271.978 -15.6697H225.962V6.97701H271.978V-15.6697Z" fill="#DDDEED"/>
<path d="M47.2966 149.068H-3.1582V199.299H47.2966V149.068Z" fill="#DDDEED"/>
<path d="M47.2966 92.3982H-3.1582V142.628H47.2966V92.3982Z" fill="#DDDEED"/>
<path d="M47.2968 206.045H-140.792V256.275H47.2968V206.045Z" fill="#DDDEED"/>
<path d="M2.01953 71.375L41.3532 50.0226C41.3532 50.0226 46.0019 56.892 54.2522 59.119V88.929" stroke="#DDDEED" stroke-miterlimit="10" stroke-linecap="round"/>
<path d="M161.585 239.53L170.455 266.846L238.427 236.803L229.482 209.26L161.585 239.53Z" fill="#DDDEED"/>
<path d="M231.397 208.407L240.344 235.955L261.824 226.461L252.854 198.841L231.397 208.407Z" fill="#DDDEED"/>
<path d="M325.282 198.412L315.376 170.969L254.769 197.988L263.74 225.614L325.282 198.412Z" fill="#DDDEED"/>
<path d="M-156.71 -24.3013H17.6053L51.195 3.30055L43.6304 33.5545L-5.24666 62.2276H-163.028L-156.71 -24.3013Z" fill="#777779"/>
<path d="M296.623 22.8786L277.804 29.5677L381.698 321.86L400.517 315.171L296.623 22.8786Z" fill="#8CC63F"/>
<path d="M448.191 458.647L302.457 439.125L280.382 319.172L219.512 287.185L73.8698 353.145V273.211L318.23 162.541L384.657 344.027L397.378 339.37L330.606 156.937L338.043 153.569L406.061 339.4L418.782 334.743L350.416 147.964L409.097 121.388L403.509 109.047L345.747 135.207L305.03 23.964L409.127 4.35812L406.619 -8.95457L273.685 16.0827H98.2954C95.1795 1.72164 82.3785 -9.07128 67.0973 -9.07128C62.3777 -9.07128 57.8978 -8.03336 53.8617 -6.18678C47.2653 -15.1248 31.5423 -30.0319 0.0201263 -30.0319H-163.479V-16.4847H0.0201263C26.1026 -16.4847 38.3523 -4.49443 43.0344 1.90817C38.1429 7.51982 35.1698 14.8457 35.1698 22.8573C35.1698 25.3083 35.4564 27.6926 35.9826 29.9862L-7.73303 54.4128H-152.101V67.9599H-4.2045L41.7735 42.2693C46.2972 48.1571 52.8217 52.4266 60.3237 54.0543V262.07H-158.464V275.617H60.3237V489.676H73.8709V368.016L219.071 302.256L268.252 328.101L288.868 440.129L68.4427 494.213L71.671 507.369L291.326 453.475L298.213 490.901L311.536 488.448L305.038 453.137L446.393 472.073L448.191 458.647ZM73.8709 258.339V87.8993L181.765 209.475L73.8709 258.339ZM333.373 140.812L325.937 144.18L283.426 28.0333L291.535 26.5056L333.373 140.812ZM98.2954 29.6298H269.585L313.563 149.785L194.684 203.624L73.8709 67.4889V54.0533C86.0477 51.4116 95.6537 41.8056 98.2954 29.6298ZM48.7169 22.8562C48.7169 12.7209 56.962 4.47588 67.0973 4.47588C77.2327 4.47588 85.4777 12.7219 85.4777 22.8562C85.4777 32.9906 77.2316 41.2366 67.0973 41.2366C56.963 41.2356 48.7169 32.9906 48.7169 22.8562Z" fill="#D1D2E0"/>
<path d="M71.2892 508L67.8127 493.832L288.269 439.74L267.787 328.444L219.054 302.836L74.3925 368.352V490.197H59.8033V276.137H-158.984V261.548H59.8033V54.4701C52.6462 52.8184 46.2248 48.7428 41.6386 42.9415L-4.06743 68.48H-152.621V53.8907H-7.86794L35.3902 29.7194C34.8984 27.4508 34.6503 25.1436 34.6503 22.8563C34.6503 15.1781 37.389 7.74699 42.3691 1.88316C37.2556 -4.93836 25.1048 -15.9647 0.0217133 -15.9647H-164V-30.554H0.0206909C31.3917 -30.554 47.2544 -15.8532 54.0301 -6.83392C58.1703 -8.66487 62.5638 -9.59233 67.0979 -9.59233C82.1154 -9.59233 95.3437 0.960905 98.7128 15.5616H273.686L407.035 -9.56315L409.736 4.77391L305.73 24.3621L346.044 134.5L403.77 108.358L409.789 121.646L351.072 148.238L419.45 335.052L405.751 340.067L337.747 154.274L331.261 157.211L398.049 339.68L384.349 344.695L317.937 163.247L74.3925 273.546V352.337L219.53 286.605L219.756 286.724L280.85 318.829L302.902 438.659L448.777 458.2L446.839 472.659L305.679 453.75L312.142 488.867L297.793 491.508L290.913 454.112L71.2892 508ZM69.0737 494.595L72.053 506.74L291.737 452.837L298.63 490.295L310.929 488.03L304.395 452.526L305.107 452.622L445.946 471.489L447.607 459.094L302.015 439.591L301.946 439.219L279.916 319.514L219.497 287.764L73.3515 353.952V272.873L73.6578 272.735L318.529 161.834L318.723 162.362L384.971 343.359L396.713 339.06L329.95 156.662L338.339 152.862L338.533 153.389L406.372 338.731L418.113 334.433L349.761 147.689L408.408 121.128L403.25 109.737L345.451 135.914L345.258 135.386L304.331 23.5659L408.519 3.94337L406.204 -8.34495L273.783 16.5943L97.8749 16.6037L97.7863 16.1931C94.6768 1.85606 81.7695 -8.55024 67.0979 -8.55024C62.5742 -8.55024 58.1943 -7.59569 54.0791 -5.71367L53.6945 -5.53756L53.4434 -5.87832C46.9293 -14.7048 31.3282 -29.5119 0.0217133 -29.5119H-162.958V-17.0068H0.0206909C25.9739 -17.0068 38.3737 -5.34894 43.456 1.59971L43.7019 1.93526L43.4279 2.24893C38.4383 7.97104 35.6914 15.2896 35.6914 22.8552C35.6914 25.1936 35.9603 27.5529 36.4907 29.8674L36.5782 30.2488L-7.59595 54.9318H-151.579V67.4368H-4.34047L41.9127 41.593L42.1867 41.9494C46.7261 47.8581 53.2068 51.9753 60.4337 53.5426L60.8443 53.6312V262.589H-157.942V275.094H60.8454V489.155H73.3504V367.68L219.09 301.677L219.315 301.795L268.72 327.758L289.471 440.517L69.0737 494.595ZM73.3504 259.147V86.5269L182.624 209.658L73.3504 259.147ZM74.3925 89.2717V257.532L180.906 209.292L74.3925 89.2717ZM194.551 204.256L194.295 203.969L73.3504 67.6869V53.6323L73.761 53.5437C85.7534 50.9416 95.1843 41.5117 97.7863 29.5194L97.8749 29.1088H269.949L314.219 150.06L194.551 204.256ZM74.3925 67.2909L194.818 202.99L312.907 149.509L269.22 30.1509H98.7128C95.9325 42.2099 86.4516 51.6898 74.3925 54.4701V67.2909ZM325.641 144.886L325.447 144.359L282.725 27.6342L291.873 25.9117L334.029 141.086L325.641 144.886ZM284.125 28.4314L326.233 143.474L332.719 140.537L291.198 27.0996L284.125 28.4314ZM67.0979 41.7566C56.6759 41.7566 48.1965 33.2771 48.1965 22.8552C48.1965 12.4333 56.6759 3.95378 67.0979 3.95378C77.5198 3.95378 85.9993 12.4333 85.9993 22.8552C85.9993 33.2782 77.5209 41.7566 67.0979 41.7566ZM67.0979 4.99588C57.2501 4.99588 49.2386 13.0075 49.2386 22.8552C49.2386 32.7029 57.2501 40.7145 67.0979 40.7145C76.9456 40.7145 84.9572 32.7029 84.9572 22.8552C84.9572 13.0075 76.9456 4.99588 67.0979 4.99588Z" fill="#DDDEED"/>
<path d="M70.311 48.9073L70.0932 46.8346C71.7689 46.6595 73.4269 46.3073 75.0202 45.7883L75.6653 47.7693C73.9333 48.3331 72.1316 48.7166 70.311 48.9073ZM59.4827 47.785C57.7455 47.2233 56.0625 46.475 54.4786 45.5611L55.5196 43.7562C56.9765 44.5972 58.526 45.285 60.1236 45.8019L59.4827 47.785ZM85.0878 42.314L83.6925 40.7665C84.9409 39.64 86.0757 38.3801 87.0636 37.0212L88.7487 38.2467C87.6764 39.7223 86.4446 41.0916 85.0878 42.314ZM46.3784 38.2874C45.2988 36.8086 44.3755 35.2174 43.6304 33.5542L45.5322 32.7028C46.2169 34.2326 47.0683 35.6978 48.0614 37.0587L46.3784 38.2874ZM93.1786 28.2989L91.1393 27.8675C91.4852 26.2314 91.6603 24.5453 91.6603 22.8561L93.7445 22.7529V22.8561C93.7445 24.6891 93.5538 26.5211 93.1786 28.2989ZM41.8266 22.8957L41.3545 22.8863C41.3545 21.0408 41.541 19.2265 41.9089 17.4654L43.9493 17.8916C43.6096 19.5131 43.4376 21.1835 43.4376 22.8561L41.8266 22.8957ZM89.5449 12.9635C88.856 11.4348 88.0026 9.97067 87.0074 8.61283L88.6872 7.38003C89.7689 8.85563 90.6974 10.4459 91.4446 12.107L89.5449 12.9635ZM48.0051 8.73058L46.3169 7.50821C47.3861 6.03157 48.6158 4.66018 49.9694 3.4326L51.369 4.97697C50.1226 6.10868 48.9909 7.37065 48.0051 8.73058ZM79.5366 1.92991C78.0788 1.09311 76.5281 0.407415 74.9285 -0.106335L75.5652 -2.09047C77.3034 -1.53191 78.9885 -0.78786 80.5746 0.122926L79.5366 1.92991ZM60.0308 -0.0615261L59.3816 -2.04149C61.1125 -2.60943 62.9143 -2.99605 64.7338 -3.19092L64.9557 -1.11925C63.2811 -0.940006 61.6242 -0.583613 60.0308 -0.0615261Z" fill="white"/>
<path d="M100.928 21.8142H98.3232V23.8984H100.928V21.8142Z" fill="white"/>
<path d="M272.719 23.8984H267.513V21.8142H272.719V23.8984ZM257.101 23.8984H251.896V21.8142H257.101V23.8984ZM241.484 23.8984H236.279V21.8142H241.484V23.8984ZM225.867 23.8984H220.661V21.8142H225.867V23.8984ZM210.25 23.8984H205.043V21.8142H210.25V23.8984ZM194.633 23.8984H189.427V21.8142H194.633V23.8984ZM179.016 23.8984H173.81V21.8142H179.016V23.8984ZM163.398 23.8984H158.192V21.8142H163.398V23.8984ZM147.781 23.8984H142.575V21.8142H147.781V23.8984ZM132.164 23.8984H126.959V21.8142H132.164V23.8984ZM116.547 23.8984H111.341V21.8142H116.547V23.8984ZM283.179 22.3332L282.793 20.2844L287.908 19.3205L288.295 21.3692L283.179 22.3332ZM298.526 19.4424L298.139 17.3937L303.255 16.4297L303.642 18.4785L298.526 19.4424ZM313.873 16.5517L313.488 14.5029L318.604 13.54L318.988 15.5888L313.873 16.5517ZM329.219 13.6609L328.834 11.6121L333.95 10.6493L334.334 12.698L329.219 13.6609ZM344.568 10.7712L344.181 8.72243L349.297 7.7585L349.683 9.80725L344.568 10.7712ZM359.914 7.88043L359.528 5.83168L364.643 4.86775L365.03 6.91649L359.914 7.88043ZM375.262 4.98967L374.876 2.94092L379.991 1.97699L380.378 4.02574L375.262 4.98967ZM390.609 2.09892L390.225 0.0501704L395.34 -0.91272L395.725 1.13603L390.609 2.09892Z" fill="white"/>
<path d="M36.6708 36.4179L34.3965 37.6887L35.4131 39.5082L37.6875 38.2374L36.6708 36.4179Z" fill="white"/>
<path d="M-5.24649 62.2274H-8.03513V60.1432H-5.78941L-3.48953 58.8583L-2.47246 60.6778L-5.24649 62.2274ZM-18.8812 62.2274H-24.3042V60.1432H-18.8812V62.2274ZM-35.1524 62.2274H-40.5754V60.1432H-35.1524V62.2274ZM-51.4225 62.2274H-56.8455V60.1432H-51.4225V62.2274ZM-67.6926 62.2274H-73.1157V60.1432H-67.6926V62.2274ZM-83.9628 62.2274H-89.3858V60.1432H-83.9617L-83.9628 62.2274ZM-100.233 62.2274H-105.657V60.1432H-100.233V62.2274ZM-116.503 62.2274H-121.927V60.1432H-116.503V62.2274ZM-132.774 62.2274H-138.197V60.1432H-132.773V62.2274H-132.774ZM6.99701 55.386L5.97992 53.5665L10.7141 50.9207L11.7312 52.7402L6.99701 55.386ZM21.2007 47.4495L20.1836 45.63L24.9189 42.9841L25.9359 44.8036L21.2007 47.4495Z" fill="white"/>
<path d="M68.591 55.5894H66.5068V58.1946H68.591V55.5894Z" fill="white"/>
<path d="M68.591 476.736H66.5068V471.568H68.591V476.736ZM68.591 461.234H66.5068V456.067H68.591V461.234ZM68.591 445.733H66.5068V440.565H68.591V445.733ZM68.591 430.231H66.5068V425.064H68.591V430.231ZM68.591 414.73H66.5068V409.562H68.591V414.73ZM68.591 399.228H66.5068V394.061H68.591V399.228ZM68.591 383.726H66.5068V378.56H68.591V383.726ZM68.591 368.225H66.5068V363.058H68.591V368.225ZM68.591 352.723H66.5068V347.557H68.591V352.723ZM68.591 337.222H66.5068V332.055H68.591V337.222ZM68.591 321.72H66.5068V316.553H68.591V321.72ZM68.591 306.219H66.5068V301.051H68.591V306.219ZM68.591 290.717H66.5068V285.55H68.591V290.717ZM68.591 275.216H66.5068V270.048H68.591V275.216ZM68.591 259.714H66.5068V254.547H68.591V259.714ZM68.591 244.213H66.5068V239.045H68.591V244.213ZM68.591 228.712H66.5068V223.544H68.591V228.712ZM68.591 213.209H66.5068V208.043H68.591V213.209ZM68.591 197.708H66.5068V192.541H68.591V197.708ZM68.591 182.206H66.5068V177.04H68.591V182.206ZM68.591 166.705H66.5068V161.539H68.591V166.705ZM68.591 151.203H66.5068V146.036H68.591V151.203ZM68.591 135.702H66.5068V130.535H68.591V135.702ZM68.591 120.201H66.5068V115.034H68.591V120.201ZM68.591 104.699H66.5068V99.5321H68.591V104.699ZM68.591 89.1977H66.5068V84.031H68.591V89.1977ZM68.591 73.6956H66.5068V68.5289H68.591V73.6956Z" fill="white"/>
<path d="M77.2185 79.3853L75.6592 80.7697L77.3888 82.7178L78.9481 81.3335L77.2185 79.3853Z" fill="white"/>
<path d="M178.372 196.511L175.007 192.718L176.565 191.335L179.931 195.128L178.372 196.511ZM168.275 185.132L164.909 181.339L166.468 179.956L169.833 183.749L168.275 185.132ZM158.178 173.754L154.812 169.961L156.371 168.578L159.737 172.371L158.178 173.754ZM148.079 162.375L144.713 158.582L146.272 157.199L149.637 160.992L148.079 162.375ZM137.982 150.998L134.616 147.204L136.175 145.822L139.541 149.614L137.982 150.998ZM127.883 139.618L124.518 135.825L126.077 134.442L129.442 138.235L127.883 139.618ZM117.786 128.24L114.42 124.448L115.979 123.065L119.345 126.858L117.786 128.24ZM107.689 116.862L104.323 113.069L105.882 111.686L109.248 115.479L107.689 116.862ZM97.5907 105.483L94.2248 101.69L95.7838 100.307L99.1497 104.1L97.5907 105.483ZM87.4929 94.1048L84.127 90.3116L85.6859 88.9287L89.0519 92.7219L87.4929 94.1048Z" fill="white"/>
<path d="M186.658 202.692L185.1 204.076L186.829 206.024L188.388 204.641L186.658 202.692Z" fill="white"/>
<path d="M86.2611 261.512L85.4014 259.614L90.1252 257.473L90.9849 259.372L86.2611 261.512ZM100.432 255.094L99.5727 253.195L104.297 251.056L105.156 252.955L100.432 255.094ZM114.604 248.675L113.744 246.776L118.468 244.637L119.328 246.535L114.604 248.675ZM128.776 242.258L127.915 240.359L132.639 238.218L133.5 240.117L128.776 242.258ZM142.946 235.839L142.087 233.941L146.811 231.801L147.669 233.7L142.946 235.839ZM157.118 229.421L156.259 227.522L160.983 225.383L161.842 227.282L157.118 229.421ZM171.289 223.003L170.431 221.104L175.154 218.965L176.013 220.863L171.289 223.003ZM185.46 216.585L184.601 214.686L189.325 212.547L190.183 214.445L185.46 216.585ZM199.632 210.166L198.773 208.268L203.497 206.128L204.356 208.027L199.632 210.166ZM213.802 203.749L212.944 201.851L217.667 199.711L218.526 201.61L213.802 203.749ZM227.974 197.33L227.115 195.431L231.839 193.292L232.698 195.191L227.974 197.33ZM242.146 190.913L241.287 189.014L246.011 186.875L246.87 188.773L242.146 190.913ZM256.316 184.495L255.458 182.596L260.182 180.456L261.04 182.355L256.316 184.495ZM270.489 178.076L269.63 176.178L274.353 174.038L275.212 175.937L270.489 178.076ZM284.66 171.658L283.802 169.759L288.525 167.62L289.384 169.519L284.66 171.658ZM298.831 165.24L297.972 163.341L302.696 161.202L303.554 163.1L298.831 165.24Z" fill="white"/>
<path d="M278.67 30.4355L276.712 31.1523L277.608 33.5989L279.566 32.882L278.67 30.4355Z" fill="white"/>
<path d="M385.984 329.74L384.178 324.805L386.136 324.088L387.942 329.023L385.984 329.74ZM380.564 314.933L378.758 309.999L380.717 309.282L382.522 314.216L380.564 314.933ZM375.144 300.127L373.339 295.193L375.297 294.476L377.103 299.41L375.144 300.127ZM369.725 285.321L367.918 280.386L369.876 279.669L371.683 284.604L369.725 285.321ZM364.305 270.515L362.499 265.58L364.457 264.863L366.263 269.798L364.305 270.515ZM358.885 255.709L357.079 250.774L359.037 250.057L360.843 254.992L358.885 255.709ZM353.465 240.902L351.659 235.968L353.617 235.251L355.423 240.185L353.465 240.902ZM348.046 226.096L346.239 221.161L348.197 220.444L350.004 225.379L348.046 226.096ZM342.626 211.29L340.819 206.355L342.777 205.638L344.584 210.573L342.626 211.29ZM337.205 196.484L335.399 191.549L337.357 190.832L339.163 195.767L337.205 196.484ZM331.785 181.678L329.979 176.743L331.937 176.026L333.743 180.961L331.785 181.678ZM326.365 166.872L324.559 161.937L326.517 161.22L328.323 166.155L326.365 166.872ZM320.946 152.065L319.139 147.13L321.098 146.413L322.905 151.348L320.946 152.065ZM315.527 137.259L313.721 132.324L315.679 131.607L317.485 136.542L315.527 137.259ZM310.106 122.453L308.3 117.518L310.258 116.801L312.064 121.736L310.106 122.453ZM304.686 107.647L302.88 102.712L304.838 101.995L306.644 106.93L304.686 107.647ZM299.267 92.8409L297.46 87.9055L299.418 87.1886L301.225 92.1239L299.267 92.8409ZM293.847 78.0338L292.041 73.0985L293.999 72.3815L295.805 77.3169L293.847 78.0338ZM288.427 63.2278L286.621 58.2925L288.579 57.5755L290.385 62.5109L288.427 63.2278ZM283.007 48.4218L281.201 43.4865L283.159 42.7695L284.965 47.7049L283.007 48.4218Z" fill="white"/>
<path d="M300.06 25.8409L298.102 26.5576L298.997 29.0042L300.955 28.2875L300.06 25.8409Z" fill="white"/>
<g clip-path="url(#clip1_375_24660)">
<path d="M39.0068 106.628C39.0068 112.372 32.5068 119 32.5068 119C32.5068 119 26.0068 112.372 26.0068 106.628C26.0068 102.967 28.917 100 32.5068 100C36.0967 100 39.0068 102.967 39.0068 106.628Z" fill="#37437D"/>
<g clip-path="url(#clip2_375_24660)">
<path d="M33.0069 103.756C32.4388 103.756 31.8835 103.924 31.4112 104.24C30.9389 104.555 30.5708 105.004 30.3534 105.529C30.136 106.054 30.0791 106.631 30.19 107.188C30.3008 107.745 30.5743 108.257 30.976 108.659C31.3777 109.06 31.8894 109.334 32.4465 109.445C33.0037 109.556 33.5812 109.499 34.106 109.281C34.6308 109.064 35.0793 108.696 35.3949 108.224C35.7105 107.751 35.879 107.196 35.879 106.628C35.8781 105.866 35.5753 105.136 35.0368 104.598C34.4984 104.06 33.7683 103.757 33.0069 103.756ZM33.0069 109.058C32.5262 109.058 32.0563 108.916 31.6567 108.649C31.257 108.382 30.9456 108.002 30.7616 107.558C30.5777 107.114 30.5296 106.625 30.6233 106.154C30.7171 105.682 30.9486 105.249 31.2884 104.91C31.6283 104.57 32.0613 104.338 32.5327 104.244C33.0042 104.151 33.4928 104.199 33.9369 104.383C34.3809 104.567 34.7605 104.878 35.0275 105.278C35.2946 105.677 35.4371 106.147 35.4371 106.628C35.4364 107.272 35.1801 107.89 34.7245 108.346C34.2689 108.801 33.6512 109.057 33.0069 109.058ZM33.2278 105.302H32.3441C32.2855 105.302 32.2293 105.326 32.1878 105.367C32.1464 105.409 32.1231 105.465 32.1231 105.523V107.733C32.1231 107.791 32.1464 107.847 32.1878 107.889C32.2293 107.93 32.2855 107.954 32.3441 107.954C32.4027 107.954 32.4589 107.93 32.5003 107.889C32.5417 107.847 32.565 107.791 32.565 107.733V107.291H33.2278C33.4915 107.291 33.7443 107.186 33.9308 107C34.1172 106.813 34.222 106.56 34.222 106.297C34.222 106.033 34.1172 105.78 33.9308 105.594C33.7443 105.407 33.4915 105.302 33.2278 105.302ZM33.2278 106.849H32.565V105.744H33.2278C33.3743 105.744 33.5148 105.802 33.6183 105.906C33.7219 106.01 33.7801 106.15 33.7801 106.297C33.7801 106.443 33.7219 106.584 33.6183 106.687C33.5148 106.791 33.3743 106.849 33.2278 106.849Z" fill="white"/>
</g>
</g>
<path d="M141.687 39.3145L261.123 37.6331L303.177 147.217L200.063 194.502L109.443 91.1113L141.687 39.3145Z" fill="#E4E5F5"/>
<rect x="227.648" y="158.284" width="47.091" height="18.8364" transform="rotate(-24.2797 227.648 158.284)" fill="#D1D2E0"/>
<rect x="198.548" y="112.862" width="62.7879" height="23.5455" transform="rotate(-24.2797 198.548 112.862)" fill="#D1D2E0"/>
<rect x="192.739" y="99.9846" width="62.7879" height="12.5576" transform="rotate(-24.2797 192.739 99.9846)" fill="#D1D2E0"/>
<rect x="184.672" y="82.0989" width="62.7879" height="18.0515" transform="rotate(-24.2797 184.672 82.0989)" fill="#D1D2E0"/>
<path d="M176.192 64.0671L234.792 42.6274L240.849 54.7041L183.615 80.522L176.192 64.0671Z" fill="#D1D2E0"/>
<path d="M168.536 46.3275L221.658 43.301L175.519 61.8239L168.536 46.3275Z" fill="#D1D2E0"/>
<rect x="193.136" y="142.856" width="15.697" height="26.6849" transform="rotate(-24.2797 193.136 142.856)" fill="#D1D2E0"/>
<rect x="181.519" y="117.101" width="15.697" height="26.6849" transform="rotate(-24.2797 181.519 117.101)" fill="#D1D2E0"/>
<path d="M255.923 83.5374L270.947 76.7602L280.489 101.73L266.895 107.862L255.923 83.5374Z" fill="#D1D2E0"/>
<path d="M162.801 75.6058L174.509 64.855L195.182 109.215L180.873 115.67L162.801 75.6058Z" fill="#D1D2E0"/>
<path d="M237.205 42.0425L257.245 41.6128L270.302 75.3293L255.278 82.1065L237.205 42.0425Z" fill="#D1D2E0"/>
<path d="M267.541 109.293L281.134 103.161L290.676 128.131L278.514 133.617L267.541 109.293Z" fill="#D1D2E0"/>
<rect x="218.794" y="142.475" width="21.1909" height="16.4818" transform="rotate(-24.2797 218.794 142.475)" fill="#D1D2E0"/>
<rect x="213.07" y="145.057" width="6.27879" height="36.8879" transform="rotate(-24.2797 213.07 145.057)" fill="#D1D2E0"/>
<rect x="208.875" y="135.756" width="21.1909" height="14.9121" transform="rotate(-24.2797 208.875 135.756)" fill="#D1D2E0"/>
<rect width="21.1909" height="16.4818" transform="matrix(-0.911549 0.411191 0.411191 0.911549 264.582 121.821)" fill="#D1D2E0"/>
<rect width="6.27879" height="36.8879" transform="matrix(-0.911549 0.411191 0.411191 0.911549 270.306 119.239)" fill="#D1D2E0"/>
<rect width="21.1909" height="14.9121" transform="matrix(-0.911549 0.411191 0.411191 0.911549 266.11 109.938)" fill="#D1D2E0"/>
<rect x="229.623" y="126.397" width="17.2667" height="8.63334" transform="rotate(-24.2797 229.623 126.397)" fill="#D1D2E0"/>
<rect x="238.573" y="130.97" width="4.7091" height="20.4061" transform="rotate(-24.2797 238.573 130.97)" fill="#D1D2E0"/>
<path d="M179.053 161.263L194.077 154.486L208.922 187.395L202.483 190.3L179.053 161.263Z" fill="#D1D2E0"/>
<path d="M149.821 127.955L176.65 115.852L193.431 153.055L177.334 160.316L149.821 127.955Z" fill="#D1D2E0"/>
<path d="M120.232 94.8077L159.223 77.2193L166.763 93.8181L132.748 109.31L120.232 94.8077Z" fill="#D1D2E0"/>
<path d="M167.614 95.8204L176.005 114.422L148.103 127.008L134.168 110.908L167.614 95.8204Z" fill="#D1D2E0"/>
<path d="M96.376 77.9894L111.194 60.4768L119.614 67.2124L105.806 88.0928L96.376 77.9894Z" fill="#D1D2E0"/>
<g clip-path="url(#clip3_375_24660)">
<path d="M113.551 64.3616C113.551 70.0633 106.816 76.6423 106.816 76.6423C106.816 76.6423 100.08 70.0633 100.08 64.3616C100.08 60.7281 103.096 57.7826 106.816 57.7826C110.536 57.7826 113.551 60.7281 113.551 64.3616Z" fill="#5562A2"/>
<g clip-path="url(#clip4_375_24660)">
<path d="M109.273 61.9492H104.887C104.771 61.9492 104.659 61.9954 104.577 62.0777C104.494 62.1599 104.448 62.2715 104.448 62.3878V63.9229C104.448 65.3681 105.148 66.2439 105.735 66.7242C106.367 67.2412 106.996 67.4166 107.023 67.424C107.061 67.4343 107.101 67.4343 107.138 67.424C107.166 67.4166 107.794 67.2412 108.427 66.7242C109.012 66.2439 109.711 65.3681 109.711 63.9229V62.3878C109.711 62.2715 109.665 62.1599 109.583 62.0777C109.501 61.9954 109.389 61.9492 109.273 61.9492ZM109.273 63.9229C109.273 64.9391 108.898 65.7639 108.16 66.3741C107.838 66.6388 107.473 66.8448 107.08 66.9827C106.692 66.8472 106.331 66.6449 106.013 66.3848C105.266 65.7735 104.887 64.9454 104.887 63.9229V62.3878H109.273V63.9229ZM105.828 64.736C105.787 64.6948 105.764 64.639 105.764 64.5808C105.764 64.5226 105.787 64.4668 105.828 64.4257C105.869 64.3845 105.925 64.3614 105.983 64.3614C106.042 64.3614 106.097 64.3845 106.138 64.4257L106.641 64.9287L108.021 63.5485C108.042 63.5281 108.066 63.5119 108.092 63.5009C108.119 63.4899 108.148 63.4842 108.176 63.4842C108.205 63.4842 108.234 63.4899 108.26 63.5009C108.287 63.5119 108.311 63.5281 108.331 63.5485C108.352 63.5688 108.368 63.593 108.379 63.6196C108.39 63.6463 108.396 63.6748 108.396 63.7036C108.396 63.7324 108.39 63.761 108.379 63.7876C108.368 63.8142 108.352 63.8384 108.331 63.8588L106.796 65.3939C106.776 65.4142 106.752 65.4304 106.725 65.4415C106.699 65.4525 106.67 65.4582 106.641 65.4582C106.612 65.4582 106.584 65.4525 106.557 65.4415C106.531 65.4304 106.506 65.4142 106.486 65.3939L105.828 64.736Z" fill="white"/>
</g>
</g>
<g clip-path="url(#clip5_375_24660)">
<path d="M145.882 40.787C145.882 46.4887 139.147 53.0677 139.147 53.0677C139.147 53.0677 132.411 46.4887 132.411 40.787C132.411 37.1535 135.427 34.208 139.147 34.208C142.867 34.208 145.882 37.1535 145.882 40.787Z" fill="#707DBF"/>
<g clip-path="url(#clip6_375_24660)">
<path d="M143.644 40.1291C143.731 40.1291 143.813 40.106 143.874 40.0649C143.935 40.0237 143.97 39.9679 143.97 39.9098V39.0326C143.97 38.9163 143.901 38.8047 143.779 38.7225C143.657 38.6402 143.491 38.594 143.319 38.594H135.505C135.332 38.594 135.166 38.6402 135.044 38.7225C134.922 38.8047 134.854 38.9163 134.854 39.0326V39.9098C134.854 39.9679 134.888 40.0237 134.949 40.0649C135.01 40.106 135.093 40.1291 135.179 40.1291C135.438 40.1291 135.687 40.1984 135.87 40.3218C136.053 40.4452 136.156 40.6125 136.156 40.787C136.156 40.9615 136.053 41.1288 135.87 41.2522C135.687 41.3756 135.438 41.4449 135.179 41.4449C135.093 41.4449 135.01 41.468 134.949 41.5091C134.888 41.5502 134.854 41.606 134.854 41.6642V42.5414C134.854 42.6577 134.922 42.7693 135.044 42.8515C135.166 42.9338 135.332 42.98 135.505 42.98H143.319C143.491 42.98 143.657 42.9338 143.779 42.8515C143.901 42.7693 143.97 42.6577 143.97 42.5414V41.6642C143.97 41.606 143.935 41.5502 143.874 41.5091C143.813 41.468 143.731 41.4449 143.644 41.4449C143.385 41.4449 143.137 41.3756 142.954 41.2522C142.77 41.1288 142.667 40.9615 142.667 40.787C142.667 40.6125 142.77 40.4452 142.954 40.3218C143.137 40.1984 143.385 40.1291 143.644 40.1291ZM135.505 41.8615C135.873 41.8112 136.204 41.6767 136.441 41.4809C136.679 41.2851 136.809 41.0399 136.809 40.787C136.809 40.5341 136.679 40.2889 136.441 40.0931C136.204 39.8972 135.873 39.7628 135.505 39.7124V39.0326H137.784V42.5414H135.505V41.8615ZM143.319 41.8615V42.5414H138.435V39.0326H143.319V39.7124C142.951 39.7628 142.62 39.8972 142.382 40.0931C142.144 40.2889 142.015 40.5341 142.015 40.787C142.015 41.0399 142.144 41.2851 142.382 41.4809C142.62 41.6767 142.951 41.8112 143.319 41.8615Z" fill="white"/>
</g>
</g>
<g clip-path="url(#clip7_375_24660)">
<path d="M163.395 36.072C163.395 41.7738 156.659 48.3527 156.659 48.3527C156.659 48.3527 149.924 41.7738 149.924 36.072C149.924 32.4385 152.939 29.493 156.659 29.493C160.379 29.493 163.395 32.4385 163.395 36.072Z" fill="#ABB4DD"/>
<path d="M156.924 33.2211C156.36 33.2211 155.809 33.3883 155.34 33.7015C154.871 34.0148 154.506 34.46 154.29 34.981C154.074 35.5019 154.018 36.0751 154.128 36.6281C154.238 37.1812 154.51 37.6891 154.908 38.0878C155.307 38.4865 155.815 38.7581 156.368 38.8681C156.921 38.9781 157.494 38.9216 158.015 38.7058C158.536 38.4901 158.981 38.1246 159.295 37.6558C159.608 37.187 159.775 36.6358 159.775 36.072C159.774 35.3161 159.474 34.5914 158.939 34.057C158.405 33.5225 157.68 33.2219 156.924 33.2211ZM156.924 38.4842C156.447 38.4842 155.981 38.3428 155.584 38.0777C155.187 37.8126 154.878 37.4359 154.695 36.9951C154.513 36.5543 154.465 36.0693 154.558 35.6013C154.651 35.1334 154.881 34.7036 155.218 34.3662C155.556 34.0288 155.986 33.7991 156.454 33.706C156.921 33.6129 157.406 33.6607 157.847 33.8433C158.288 34.0259 158.665 34.3351 158.93 34.7318C159.195 35.1285 159.336 35.5948 159.336 36.072C159.336 36.7115 159.081 37.3247 158.629 37.7769C158.177 38.2291 157.564 38.4835 156.924 38.4842ZM157.363 37.3877C157.363 37.4459 157.34 37.5017 157.298 37.5428C157.257 37.5839 157.202 37.607 157.143 37.607C157.027 37.607 156.916 37.5608 156.833 37.4786C156.751 37.3963 156.705 37.2848 156.705 37.1684V36.072C156.647 36.072 156.591 36.0488 156.55 36.0077C156.509 35.9666 156.486 35.9108 156.486 35.8527C156.486 35.7945 156.509 35.7387 156.55 35.6976C156.591 35.6565 156.647 35.6334 156.705 35.6334C156.821 35.6334 156.933 35.6796 157.015 35.7618C157.097 35.8441 157.143 35.9556 157.143 36.072V37.1684C157.202 37.1684 157.257 37.1916 157.298 37.2327C157.34 37.2738 157.363 37.3296 157.363 37.3877ZM156.486 34.8658C156.486 34.8008 156.505 34.7372 156.541 34.6831C156.577 34.629 156.628 34.5868 156.689 34.5619C156.749 34.537 156.815 34.5305 156.879 34.5432C156.942 34.5559 157.001 34.5872 157.047 34.6332C157.093 34.6792 157.124 34.7378 157.137 34.8016C157.15 34.8654 157.143 34.9316 157.118 34.9917C157.093 35.0518 157.051 35.1032 156.997 35.1393C156.943 35.1755 156.88 35.1948 156.814 35.1948C156.727 35.1948 156.644 35.1601 156.582 35.0984C156.52 35.0367 156.486 34.9531 156.486 34.8658Z" fill="white"/>
</g>
<g clip-path="url(#clip8_375_24660)">
<path d="M171.477 98.7131C171.477 104.415 164.741 110.994 164.741 110.994C164.741 110.994 158.006 104.415 158.006 98.7131C158.006 95.0797 161.021 92.1342 164.741 92.1342C168.461 92.1342 171.477 95.0797 171.477 98.7131Z" fill="#FFCA39"/>
<g clip-path="url(#clip9_375_24660)">
<path d="M164.019 99.042C163.954 99.042 163.891 99.0227 163.837 98.9866C163.782 98.9504 163.74 98.8991 163.715 98.839C163.691 98.7788 163.684 98.7127 163.697 98.6489C163.709 98.5851 163.741 98.5265 163.787 98.4805C163.833 98.4345 163.891 98.4031 163.955 98.3904C164.019 98.3777 164.085 98.3843 164.145 98.4092C164.205 98.4341 164.257 98.4762 164.293 98.5303C164.329 98.5844 164.348 98.648 164.348 98.7131C164.348 98.8003 164.314 98.884 164.252 98.9457C164.19 99.0074 164.107 99.042 164.019 99.042ZM165.993 98.3841C165.928 98.3841 165.864 98.4034 165.81 98.4396C165.756 98.4757 165.714 98.5271 165.689 98.5872C165.664 98.6473 165.658 98.7134 165.67 98.7772C165.683 98.8411 165.714 98.8997 165.76 98.9457C165.806 98.9917 165.865 99.023 165.929 99.0357C165.993 99.0484 166.059 99.0419 166.119 99.017C166.179 98.9921 166.23 98.9499 166.267 98.8958C166.303 98.8417 166.322 98.7781 166.322 98.7131C166.322 98.6258 166.287 98.5422 166.226 98.4805C166.164 98.4188 166.08 98.3841 165.993 98.3841ZM165.657 99.624C165.461 99.7452 165.236 99.8094 165.006 99.8094C164.776 99.8094 164.551 99.7452 164.356 99.624C164.306 99.5929 164.247 99.5827 164.19 99.5956C164.133 99.6084 164.084 99.6433 164.053 99.6925C164.022 99.7417 164.012 99.8013 164.025 99.858C164.037 99.9148 164.072 99.9641 164.122 99.9951C164.387 100.161 164.693 100.248 165.006 100.248C165.319 100.248 165.625 100.161 165.891 99.9951C165.94 99.9641 165.975 99.9148 165.988 99.858C166.001 99.8013 165.99 99.7417 165.959 99.6925C165.928 99.6433 165.879 99.6084 165.822 99.5956C165.765 99.5827 165.706 99.5929 165.657 99.624ZM167.857 98.7131C167.857 99.2769 167.69 99.8281 167.377 100.297C167.063 100.766 166.618 101.131 166.097 101.347C165.576 101.563 165.003 101.619 164.45 101.509C163.897 101.399 163.389 101.128 162.99 100.729C162.592 100.33 162.32 99.8223 162.21 99.2692C162.1 98.7162 162.157 98.143 162.372 97.6221C162.588 97.1011 162.953 96.6559 163.422 96.3426C163.891 96.0294 164.442 95.8622 165.006 95.8622C165.762 95.863 166.487 96.1636 167.021 96.6981C167.556 97.2325 167.856 97.9572 167.857 98.7131ZM167.418 98.7131C167.418 98.0921 167.178 97.4952 166.749 97.0465C166.319 96.5978 165.734 96.3316 165.113 96.3032C164.796 96.7498 164.787 97.1747 164.787 97.178C164.787 97.2361 164.81 97.2919 164.851 97.333C164.892 97.3742 164.948 97.3973 165.006 97.3973C165.064 97.3973 165.12 97.3742 165.161 97.333C165.202 97.2919 165.225 97.2361 165.225 97.178C165.225 97.1198 165.249 97.064 165.29 97.0229C165.331 96.9818 165.387 96.9587 165.445 96.9587C165.503 96.9587 165.559 96.9818 165.6 97.0229C165.641 97.064 165.664 97.1198 165.664 97.178C165.664 97.3525 165.595 97.5198 165.471 97.6432C165.348 97.7666 165.181 97.8359 165.006 97.8359C164.832 97.8359 164.664 97.7666 164.541 97.6432C164.418 97.5198 164.348 97.3525 164.348 97.178C164.348 97.158 164.352 96.786 164.58 96.3383C164.129 96.4194 163.709 96.6275 163.372 96.9384C163.034 97.2493 162.792 97.65 162.675 98.0935C162.557 98.537 162.568 99.0049 162.707 99.4423C162.846 99.8797 163.106 100.268 163.458 100.563C163.81 100.857 164.239 101.045 164.694 101.105C165.149 101.164 165.611 101.093 166.027 100.898C166.443 100.704 166.795 100.395 167.041 100.008C167.287 99.6213 167.418 99.1719 167.418 98.7131Z" fill="#1C2346"/>
</g>
</g>
<g clip-path="url(#clip10_375_24660)">
<path d="M141.841 67.7294C141.841 73.4311 135.106 80.0101 135.106 80.0101C135.106 80.0101 128.37 73.4311 128.37 67.7294C128.37 64.0959 131.386 61.1504 135.106 61.1504C138.826 61.1504 141.841 64.0959 141.841 67.7294Z" fill="#F26CF9"/>
<g clip-path="url(#clip11_375_24660)">
<path d="M137.783 65.317H132.958C132.842 65.317 132.73 65.3632 132.648 65.4455C132.566 65.5277 132.52 65.6393 132.52 65.7556V69.703C132.52 69.8193 132.566 69.9309 132.648 70.0131C132.73 70.0954 132.842 70.1416 132.958 70.1416H137.783C137.899 70.1416 138.011 70.0954 138.093 70.0131C138.175 69.9309 138.221 69.8193 138.221 69.703V65.7556C138.221 65.6393 138.175 65.5277 138.093 65.4455C138.011 65.3632 137.899 65.317 137.783 65.317ZM137.783 65.7556V66.1942H132.958V65.7556H137.783ZM137.783 69.703H132.958V66.6328H137.783V69.703ZM136.686 67.2907C136.686 67.6397 136.548 67.9744 136.301 68.2211C136.054 68.4679 135.719 68.6065 135.37 68.6065C135.021 68.6065 134.687 68.4679 134.44 68.2211C134.193 67.9744 134.055 67.6397 134.055 67.2907C134.055 67.2325 134.078 67.1768 134.119 67.1356C134.16 67.0945 134.216 67.0714 134.274 67.0714C134.332 67.0714 134.388 67.0945 134.429 67.1356C134.47 67.1768 134.493 67.2325 134.493 67.2907C134.493 67.5234 134.586 67.7465 134.75 67.911C134.915 68.0755 135.138 68.1679 135.37 68.1679C135.603 68.1679 135.826 68.0755 135.991 67.911C136.155 67.7465 136.248 67.5234 136.248 67.2907C136.248 67.2325 136.271 67.1768 136.312 67.1356C136.353 67.0945 136.409 67.0714 136.467 67.0714C136.525 67.0714 136.581 67.0945 136.622 67.1356C136.663 67.1768 136.686 67.2325 136.686 67.2907Z" fill="white"/>
</g>
</g>
<g clip-path="url(#clip12_375_24660)">
<path d="M158.006 83.2212C158.006 88.9229 151.271 95.5019 151.271 95.5019C151.271 95.5019 144.535 88.9229 144.535 83.2212C144.535 79.5877 147.551 76.6422 151.271 76.6422C154.991 76.6422 158.006 79.5877 158.006 83.2212Z" fill="#F589FA"/>
<g clip-path="url(#clip13_375_24660)">
<path d="M153.53 81.1896C152.999 80.664 152.282 80.3695 151.535 80.3702H151.506C150.755 80.378 150.037 80.6817 149.509 81.2155C148.981 81.7494 148.685 82.4701 148.685 83.2211C148.685 84.3999 149.413 85.3883 150.586 85.8025C150.718 85.8492 150.86 85.8634 150.999 85.8441C151.137 85.8247 151.27 85.7723 151.384 85.6913C151.499 85.6103 151.592 85.5031 151.657 85.3785C151.721 85.254 151.755 85.1158 151.755 84.9755C151.755 84.8592 151.801 84.7476 151.883 84.6654C151.965 84.5831 152.077 84.5369 152.193 84.5369H153.46C153.659 84.5379 153.852 84.4708 154.008 84.3467C154.164 84.2226 154.272 84.0491 154.315 83.8549C154.364 83.6391 154.388 83.4183 154.386 83.197C154.384 82.8224 154.306 82.4521 154.159 82.1075C154.013 81.7629 153.799 81.4509 153.53 81.1896ZM153.887 83.7584C153.865 83.8552 153.811 83.9416 153.733 84.0034C153.656 84.0652 153.559 84.0987 153.46 84.0983H152.193C151.961 84.0983 151.738 84.1907 151.573 84.3552C151.409 84.5198 151.316 84.7429 151.316 84.9755C151.316 85.0456 151.299 85.1146 151.267 85.1768C151.235 85.239 151.188 85.2925 151.131 85.333C151.074 85.3734 151.008 85.3996 150.938 85.4093C150.869 85.419 150.798 85.4119 150.732 85.3886C149.74 85.0386 149.123 84.208 149.123 83.2211C149.123 82.5856 149.374 81.9758 149.821 81.5241C150.268 81.0725 150.875 80.8154 151.511 80.8088H151.535C152.171 80.8113 152.78 81.0634 153.231 81.5109C153.682 81.9583 153.94 82.5651 153.947 83.2006C153.949 83.3882 153.929 83.5754 153.888 83.7584H153.887ZM151.864 81.7957C151.864 81.8607 151.845 81.9243 151.809 81.9784C151.773 82.0325 151.721 82.0747 151.661 82.0996C151.601 82.1245 151.535 82.131 151.471 82.1183C151.407 82.1056 151.349 82.0743 151.303 82.0283C151.257 81.9823 151.226 81.9237 151.213 81.8599C151.2 81.796 151.207 81.7299 151.232 81.6698C151.256 81.6097 151.299 81.5583 151.353 81.5222C151.407 81.486 151.47 81.4667 151.535 81.4667C151.623 81.4667 151.706 81.5014 151.768 81.5631C151.83 81.6248 151.864 81.7084 151.864 81.7957ZM150.658 82.4536C150.658 82.5186 150.639 82.5822 150.603 82.6363C150.567 82.6904 150.515 82.7326 150.455 82.7575C150.395 82.7824 150.329 82.7889 150.265 82.7762C150.201 82.7635 150.143 82.7322 150.097 82.6862C150.051 82.6402 150.019 82.5816 150.007 82.5178C149.994 82.4539 150.001 82.3878 150.025 82.3277C150.05 82.2676 150.092 82.2162 150.147 82.1801C150.201 82.1439 150.264 82.1246 150.329 82.1246C150.417 82.1246 150.5 82.1593 150.562 82.221C150.624 82.2827 150.658 82.3663 150.658 82.4536ZM150.658 83.9887C150.658 84.0537 150.639 84.1173 150.603 84.1714C150.567 84.2255 150.515 84.2677 150.455 84.2926C150.395 84.3175 150.329 84.324 150.265 84.3113C150.201 84.2986 150.143 84.2673 150.097 84.2213C150.051 84.1753 150.019 84.1167 150.007 84.0528C149.994 83.989 150.001 83.9229 150.025 83.8628C150.05 83.8027 150.092 83.7513 150.147 83.7152C150.201 83.679 150.264 83.6597 150.329 83.6597C150.417 83.6597 150.5 83.6944 150.562 83.7561C150.624 83.8178 150.658 83.9014 150.658 83.9887ZM153.071 82.4536C153.071 82.5186 153.051 82.5822 153.015 82.6363C152.979 82.6904 152.928 82.7326 152.867 82.7575C152.807 82.7824 152.741 82.7889 152.677 82.7762C152.614 82.7635 152.555 82.7322 152.509 82.6862C152.463 82.6402 152.432 82.5816 152.419 82.5178C152.406 82.4539 152.413 82.3878 152.438 82.3277C152.463 82.2676 152.505 82.2162 152.559 82.1801C152.613 82.1439 152.677 82.1246 152.742 82.1246C152.829 82.1246 152.913 82.1593 152.974 82.221C153.036 82.2827 153.071 82.3663 153.071 82.4536Z" fill="white"/>
</g>
</g>
<g clip-path="url(#clip14_375_24660)">
<path d="M151.944 106.796C151.944 112.498 145.208 119.077 145.208 119.077C145.208 119.077 138.473 112.498 138.473 106.796C138.473 103.162 141.488 100.217 145.208 100.217C148.928 100.217 151.944 103.162 151.944 106.796Z" fill="#FCD3FE"/>
<path d="M143.194 105.699V104.384C143.194 104.325 143.229 104.27 143.29 104.229C143.351 104.187 143.434 104.164 143.52 104.164C143.606 104.164 143.689 104.187 143.75 104.229C143.811 104.27 143.845 104.325 143.845 104.384V105.699C143.845 105.758 143.811 105.813 143.75 105.854C143.689 105.896 143.606 105.919 143.52 105.919C143.434 105.919 143.351 105.896 143.29 105.854C143.229 105.813 143.194 105.758 143.194 105.699ZM149.055 104.384V109.427C149.055 109.486 149.02 109.541 148.959 109.583C148.898 109.624 148.816 109.647 148.729 109.647C148.643 109.647 148.56 109.624 148.499 109.583C148.438 109.541 148.404 109.486 148.404 109.427V108.112H146.45C146.364 108.112 146.281 108.089 146.22 108.047C146.159 108.006 146.125 107.951 146.125 107.892C146.14 107.367 146.238 106.844 146.418 106.333C146.816 105.223 147.571 104.479 148.601 104.182C148.651 104.168 148.705 104.162 148.758 104.165C148.812 104.169 148.863 104.181 148.908 104.201C148.953 104.221 148.99 104.248 149.016 104.28C149.041 104.312 149.055 104.347 149.055 104.384ZM148.404 104.765C147.094 105.438 146.838 107.079 146.788 107.673H148.404V104.765ZM145.143 104.348C145.137 104.319 145.122 104.291 145.1 104.266C145.077 104.241 145.048 104.22 145.013 104.203C144.978 104.186 144.938 104.173 144.896 104.167C144.854 104.16 144.81 104.159 144.768 104.164C144.725 104.169 144.684 104.179 144.648 104.195C144.611 104.21 144.58 104.23 144.555 104.254C144.53 104.278 144.512 104.305 144.503 104.333C144.494 104.362 144.493 104.391 144.501 104.42L144.822 105.717C144.822 105.949 144.685 106.172 144.441 106.337C144.197 106.501 143.865 106.594 143.52 106.594C143.174 106.594 142.843 106.501 142.599 106.337C142.355 106.172 142.218 105.949 142.218 105.717L142.538 104.42C142.546 104.391 142.545 104.362 142.536 104.333C142.527 104.305 142.509 104.278 142.485 104.254C142.46 104.23 142.428 104.21 142.392 104.195C142.355 104.179 142.314 104.169 142.272 104.164C142.229 104.159 142.185 104.16 142.143 104.167C142.101 104.173 142.062 104.186 142.027 104.203C141.992 104.22 141.962 104.241 141.94 104.266C141.917 104.291 141.902 104.319 141.896 104.348L141.57 105.664C141.568 105.675 141.566 105.687 141.566 105.699C141.567 106.01 141.731 106.311 142.029 106.548C142.327 106.786 142.739 106.944 143.194 106.997V109.427C143.194 109.486 143.229 109.541 143.29 109.583C143.351 109.624 143.434 109.647 143.52 109.647C143.606 109.647 143.689 109.624 143.75 109.583C143.811 109.541 143.845 109.486 143.845 109.427V106.997C144.3 106.944 144.713 106.786 145.011 106.548C145.309 106.311 145.473 106.01 145.473 105.699C145.473 105.687 145.472 105.675 145.469 105.664L145.143 104.348Z" fill="#37437D"/>
</g>
<g clip-path="url(#clip15_375_24660)">
<path d="M176.866 125.656C176.866 131.357 170.13 137.936 170.13 137.936C170.13 137.936 163.395 131.357 163.395 125.656C163.395 122.022 166.41 119.077 170.13 119.077C173.85 119.077 176.866 122.022 176.866 125.656Z" fill="white"/>
<g clip-path="url(#clip16_375_24660)">
<path d="M172.807 124.559H171.491V123.243C171.491 123.127 171.445 123.015 171.363 122.933C171.281 122.851 171.169 122.805 171.053 122.805H169.737C169.621 122.805 169.509 122.851 169.427 122.933C169.345 123.015 169.298 123.127 169.298 123.243V124.559H167.983C167.866 124.559 167.755 124.605 167.672 124.688C167.59 124.77 167.544 124.881 167.544 124.998V126.313C167.544 126.43 167.59 126.541 167.672 126.624C167.755 126.706 167.866 126.752 167.983 126.752H169.298V128.068C169.298 128.184 169.345 128.296 169.427 128.378C169.509 128.46 169.621 128.506 169.737 128.506H171.053C171.169 128.506 171.281 128.46 171.363 128.378C171.445 128.296 171.491 128.184 171.491 128.068V126.752H172.807C172.923 126.752 173.035 126.706 173.117 126.624C173.2 126.541 173.246 126.43 173.246 126.313V124.998C173.246 124.881 173.2 124.77 173.117 124.688C173.035 124.605 172.923 124.559 172.807 124.559Z" fill="#FFCA39"/>
</g>
</g>
<g clip-path="url(#clip17_375_24660)">
<path d="M201.788 162.028C201.788 167.73 195.052 174.309 195.052 174.309C195.052 174.309 188.316 167.73 188.316 162.028C188.316 158.394 191.332 155.449 195.052 155.449C198.772 155.449 201.788 158.394 201.788 162.028Z" fill="#C256C7"/>
<g clip-path="url(#clip18_375_24660)">
<path d="M195.097 160.273C195.097 160.332 195.074 160.387 195.033 160.428C194.991 160.47 194.936 160.493 194.878 160.493H194.439C194.381 160.493 194.325 160.47 194.284 160.428C194.243 160.387 194.22 160.332 194.22 160.273C194.22 160.215 194.243 160.159 194.284 160.118C194.325 160.077 194.381 160.054 194.439 160.054H194.878C194.936 160.054 194.991 160.077 195.033 160.118C195.074 160.159 195.097 160.215 195.097 160.273ZM196.531 163.923L196.628 164.597C196.636 164.66 196.632 164.723 196.614 164.783C196.596 164.844 196.566 164.899 196.525 164.947C196.484 164.994 196.433 165.032 196.375 165.058C196.318 165.084 196.256 165.098 196.193 165.098H194.439C194.376 165.098 194.314 165.084 194.257 165.058C194.2 165.032 194.149 164.994 194.108 164.947C194.066 164.899 194.036 164.844 194.018 164.783C194 164.723 193.996 164.66 194.005 164.597L194.101 163.923C193.674 163.701 193.317 163.365 193.067 162.954C192.817 162.543 192.685 162.07 192.685 161.589C192.685 161.531 192.708 161.475 192.749 161.434C192.79 161.393 192.846 161.37 192.904 161.37H193.342V159.615C193.342 159.499 193.389 159.388 193.471 159.305C193.553 159.223 193.665 159.177 193.781 159.177H196.851C196.968 159.177 197.079 159.223 197.161 159.305C197.244 159.388 197.29 159.499 197.29 159.615V161.37H197.728C197.787 161.37 197.842 161.393 197.884 161.434C197.925 161.475 197.948 161.531 197.948 161.589C197.947 162.07 197.815 162.543 197.565 162.954C197.316 163.365 196.958 163.701 196.531 163.923ZM193.781 161.37H196.851V159.615H193.781V161.37ZM196.113 164.097C195.595 164.262 195.038 164.262 194.519 164.097L194.439 164.659H196.193L196.113 164.097ZM197.498 161.808H193.134C193.188 162.349 193.442 162.851 193.845 163.216C194.248 163.58 194.772 163.782 195.316 163.782C195.86 163.782 196.384 163.58 196.787 163.216C197.191 162.851 197.444 162.349 197.498 161.808Z" fill="white"/>
</g>
</g>
<g clip-path="url(#clip19_375_24660)">
<path d="M189.664 40.1134C189.664 45.8152 182.928 52.3941 182.928 52.3941C182.928 52.3941 176.192 45.8152 176.192 40.1134C176.192 36.4799 179.208 33.5344 182.928 33.5344C186.648 33.5344 189.664 36.4799 189.664 40.1134Z" fill="#C256C7"/>
<g clip-path="url(#clip20_375_24660)">
<path d="M182.973 38.3589C182.973 38.4171 182.95 38.4729 182.909 38.514C182.867 38.5551 182.812 38.5782 182.754 38.5782H182.315C182.257 38.5782 182.201 38.5551 182.16 38.514C182.119 38.4729 182.096 38.4171 182.096 38.3589C182.096 38.3008 182.119 38.245 182.16 38.2039C182.201 38.1628 182.257 38.1396 182.315 38.1396H182.754C182.812 38.1396 182.867 38.1628 182.909 38.2039C182.95 38.245 182.973 38.3008 182.973 38.3589ZM184.407 42.0086L184.504 42.683C184.512 42.7452 184.508 42.8086 184.49 42.8688C184.472 42.9291 184.442 42.9849 184.401 43.0323C184.359 43.0798 184.309 43.1179 184.251 43.1439C184.194 43.17 184.132 43.1835 184.069 43.1835H182.315C182.252 43.1835 182.19 43.17 182.133 43.1439C182.076 43.1179 182.025 43.0798 181.984 43.0323C181.942 42.9849 181.912 42.9291 181.894 42.8688C181.876 42.8086 181.872 42.7452 181.881 42.683L181.977 42.0086C181.55 41.7862 181.193 41.451 180.943 41.0396C180.693 40.6281 180.561 40.1561 180.561 39.6747C180.561 39.6166 180.584 39.5608 180.625 39.5197C180.666 39.4785 180.722 39.4554 180.78 39.4554H181.218V37.701C181.218 37.5847 181.265 37.4732 181.347 37.3909C181.429 37.3087 181.541 37.2625 181.657 37.2625H184.727C184.844 37.2625 184.955 37.3087 185.037 37.3909C185.12 37.4732 185.166 37.5847 185.166 37.701V39.4554H185.604C185.663 39.4554 185.718 39.4785 185.759 39.5197C185.801 39.5608 185.824 39.6166 185.824 39.6747C185.823 40.1561 185.691 40.6281 185.441 41.0396C185.192 41.451 184.834 41.7862 184.407 42.0086ZM181.657 39.4554H184.727V37.701H181.657V39.4554ZM183.989 42.183C183.47 42.3474 182.914 42.3474 182.395 42.183L182.315 42.7449H184.069L183.989 42.183ZM185.374 39.894H181.01C181.064 40.435 181.318 40.9365 181.721 41.3013C182.124 41.666 182.648 41.868 183.192 41.868C183.736 41.868 184.26 41.666 184.663 41.3013C185.067 40.9365 185.32 40.435 185.374 39.894Z" fill="white"/>
</g>
</g>
<g clip-path="url(#clip21_375_24660)">
<path d="M259.041 149.23C259.041 154.932 252.305 161.511 252.305 161.511C252.305 161.511 245.569 154.932 245.569 149.23C245.569 145.597 248.585 142.651 252.305 142.651C256.025 142.651 259.041 145.597 259.041 149.23Z" fill="white"/>
<g clip-path="url(#clip22_375_24660)">
<path d="M256.802 148.572C256.889 148.572 256.972 148.549 257.033 148.508C257.094 148.467 257.128 148.411 257.128 148.353V147.476C257.128 147.36 257.059 147.248 256.937 147.166C256.815 147.083 256.65 147.037 256.477 147.037H248.663C248.49 147.037 248.325 147.083 248.202 147.166C248.08 147.248 248.012 147.36 248.012 147.476V148.353C248.012 148.411 248.046 148.467 248.107 148.508C248.168 148.549 248.251 148.572 248.337 148.572C248.596 148.572 248.845 148.642 249.028 148.765C249.211 148.888 249.314 149.056 249.314 149.23C249.314 149.405 249.211 149.572 249.028 149.695C248.845 149.819 248.596 149.888 248.337 149.888C248.251 149.888 248.168 149.911 248.107 149.952C248.046 149.993 248.012 150.049 248.012 150.107V150.985C248.012 151.101 248.08 151.212 248.202 151.295C248.325 151.377 248.49 151.423 248.663 151.423H256.477C256.65 151.423 256.815 151.377 256.937 151.295C257.059 151.212 257.128 151.101 257.128 150.985V150.107C257.128 150.049 257.094 149.993 257.033 149.952C256.972 149.911 256.889 149.888 256.802 149.888C256.543 149.888 256.295 149.819 256.112 149.695C255.929 149.572 255.826 149.405 255.826 149.23C255.826 149.056 255.929 148.888 256.112 148.765C256.295 148.642 256.543 148.572 256.802 148.572ZM248.663 150.305C249.031 150.254 249.362 150.12 249.599 149.924C249.837 149.728 249.967 149.483 249.967 149.23C249.967 148.977 249.837 148.732 249.599 148.536C249.362 148.34 249.031 148.206 248.663 148.156V147.476H250.942V150.985H248.663V150.305ZM256.477 150.305V150.985H251.593V147.476H256.477V148.156C256.109 148.206 255.778 148.34 255.54 148.536C255.303 148.732 255.173 148.977 255.173 149.23C255.173 149.483 255.303 149.728 255.54 149.924C255.778 150.12 256.109 150.254 256.477 150.305Z" fill="white"/>
</g>
</g>
<g clip-path="url(#clip23_375_24660)">
<path d="M234.119 80.527C234.119 86.2287 227.383 92.8077 227.383 92.8077C227.383 92.8077 220.647 86.2287 220.647 80.527C220.647 76.8935 223.663 73.948 227.383 73.948C231.103 73.948 234.119 76.8935 234.119 80.527Z" fill="#FFEFC3"/>
<g clip-path="url(#clip24_375_24660)">
<path d="M230.059 79.4524V78.9919C230.059 78.7011 229.944 78.4222 229.738 78.2165C229.533 78.0109 229.254 77.8954 228.963 77.8954H226.331C226.04 77.8954 225.762 78.0109 225.556 78.2165C225.35 78.4222 225.235 78.7011 225.235 78.9919V79.4524C224.987 79.5027 224.764 79.6372 224.604 79.8331C224.444 80.0289 224.356 80.274 224.356 80.527C224.356 80.7799 224.444 81.0251 224.604 81.2209C224.764 81.4167 224.987 81.5512 225.235 81.6015V82.5007C225.235 82.617 225.281 82.7285 225.363 82.8108C225.445 82.893 225.557 82.9393 225.673 82.9393H229.621C229.737 82.9393 229.849 82.893 229.931 82.8108C230.013 82.7285 230.059 82.617 230.059 82.5007V81.6015C230.307 81.5512 230.53 81.4167 230.69 81.2209C230.85 81.0251 230.938 80.7799 230.938 80.527C230.938 80.274 230.85 80.0289 230.69 79.8331C230.53 79.6372 230.307 79.5027 230.059 79.4524ZM226.331 78.334H228.963C229.137 78.334 229.305 78.4033 229.428 78.5267C229.551 78.6501 229.621 78.8174 229.621 78.9919V79.4524C229.373 79.5033 229.151 79.638 228.991 79.8337C228.831 80.0294 228.744 80.2743 228.744 80.527H226.551C226.55 80.2743 226.463 80.0294 226.303 79.8337C226.143 79.638 225.921 79.5033 225.673 79.4524V78.9919C225.673 78.8174 225.743 78.6501 225.866 78.5267C225.989 78.4033 226.157 78.334 226.331 78.334ZM229.851 81.1849H229.84C229.782 81.1849 229.726 81.208 229.685 81.2491C229.644 81.2902 229.621 81.346 229.621 81.4042V82.5007H225.673V81.4042C225.673 81.346 225.65 81.2902 225.609 81.2491C225.568 81.208 225.512 81.1849 225.454 81.1849H225.443C225.314 81.1828 225.188 81.1424 225.081 81.0688C224.974 80.9953 224.891 80.8918 224.843 80.7714C224.795 80.651 224.784 80.5191 224.81 80.3922C224.837 80.2653 224.9 80.1491 224.993 80.0581C225.085 79.9672 225.202 79.9056 225.33 79.881C225.457 79.8565 225.589 79.8702 225.708 79.9202C225.828 79.9703 225.93 80.0547 226.002 80.1626C226.074 80.2705 226.112 80.3973 226.112 80.527V81.6235C226.112 81.6816 226.135 81.7374 226.176 81.7785C226.217 81.8197 226.273 81.8428 226.331 81.8428C226.389 81.8428 226.445 81.8197 226.486 81.7785C226.527 81.7374 226.551 81.6816 226.551 81.6235V80.9656H228.744V81.6235C228.744 81.6816 228.767 81.7374 228.808 81.7785C228.849 81.8197 228.905 81.8428 228.963 81.8428C229.021 81.8428 229.077 81.8197 229.118 81.7785C229.159 81.7374 229.182 81.6816 229.182 81.6235V80.527C229.182 80.3973 229.22 80.2705 229.292 80.1626C229.364 80.0547 229.466 79.9703 229.586 79.9202C229.705 79.8702 229.837 79.8565 229.964 79.881C230.092 79.9056 230.209 79.9672 230.301 80.0581C230.394 80.1491 230.457 80.2653 230.484 80.3922C230.511 80.5191 230.499 80.651 230.451 80.7714C230.403 80.8918 230.32 80.9953 230.213 81.0688C230.106 81.1424 229.98 81.1828 229.851 81.1849Z" fill="#37437D"/>
</g>
</g>
</g>
<defs>
<clipPath id="clip0_375_24660">
<rect y="0.918701" width="302" height="230" rx="12" fill="white"/>
</clipPath>
<clipPath id="clip1_375_24660">
<rect width="13" height="19" fill="white" transform="translate(26.0068 100)"/>
</clipPath>
<clipPath id="clip2_375_24660">
<rect width="7.06977" height="7.06977" fill="white" transform="translate(29.4717 103.093)"/>
</clipPath>
<clipPath id="clip3_375_24660">
<rect width="13.4712" height="18.8597" fill="white" transform="translate(100.08 57.7826)"/>
</clipPath>
<clipPath id="clip4_375_24660">
<rect width="7.01756" height="7.01756" fill="white" transform="translate(103.571 60.8528)"/>
</clipPath>
<clipPath id="clip5_375_24660">
<rect width="13.4712" height="18.8597" fill="white" transform="translate(132.411 34.208)"/>
</clipPath>
<clipPath id="clip6_375_24660">
<rect width="10.4186" height="7.01756" fill="white" transform="translate(134.202 37.2782)"/>
</clipPath>
<clipPath id="clip7_375_24660">
<rect width="13.4712" height="18.8597" fill="white" transform="translate(149.924 29.493)"/>
</clipPath>
<clipPath id="clip8_375_24660">
<rect width="13.4712" height="18.8597" fill="white" transform="translate(158.006 92.1342)"/>
</clipPath>
<clipPath id="clip9_375_24660">
<rect width="7.01756" height="7.01756" fill="white" transform="translate(161.497 95.2043)"/>
</clipPath>
<clipPath id="clip10_375_24660">
<rect width="13.4712" height="18.8597" fill="white" transform="translate(128.37 61.1504)"/>
</clipPath>
<clipPath id="clip11_375_24660">
<rect width="7.01756" height="7.01756" fill="white" transform="translate(131.861 64.2206)"/>
</clipPath>
<clipPath id="clip12_375_24660">
<rect width="13.4712" height="18.8597" fill="white" transform="translate(144.535 76.6422)"/>
</clipPath>
<clipPath id="clip13_375_24660">
<rect width="7.01756" height="7.01756" fill="white" transform="translate(148.026 79.7124)"/>
</clipPath>
<clipPath id="clip14_375_24660">
<rect width="13.4712" height="18.8597" fill="white" transform="translate(138.473 100.217)"/>
</clipPath>
<clipPath id="clip15_375_24660">
<rect width="13.4712" height="18.8597" fill="white" transform="translate(163.395 119.077)"/>
</clipPath>
<clipPath id="clip16_375_24660">
<rect width="7.01756" height="7.01756" fill="white" transform="translate(166.886 122.147)"/>
</clipPath>
<clipPath id="clip17_375_24660">
<rect width="13.4712" height="18.8597" fill="white" transform="translate(188.316 155.449)"/>
</clipPath>
<clipPath id="clip18_375_24660">
<rect width="7.01756" height="7.01756" fill="white" transform="translate(191.808 158.519)"/>
</clipPath>
<clipPath id="clip19_375_24660">
<rect width="13.4712" height="18.8597" fill="white" transform="translate(176.192 33.5344)"/>
</clipPath>
<clipPath id="clip20_375_24660">
<rect width="7.01756" height="7.01756" fill="white" transform="translate(179.684 36.6046)"/>
</clipPath>
<clipPath id="clip21_375_24660">
<rect width="13.4712" height="18.8597" fill="white" transform="translate(245.569 142.651)"/>
</clipPath>
<clipPath id="clip22_375_24660">
<rect width="10.4186" height="7.01756" fill="white" transform="translate(247.36 145.721)"/>
</clipPath>
<clipPath id="clip23_375_24660">
<rect width="13.4712" height="18.8597" fill="white" transform="translate(220.647 73.948)"/>
</clipPath>
<clipPath id="clip24_375_24660">
<rect width="7.01756" height="7.01756" fill="white" transform="translate(224.139 77.0182)"/>
</clipPath>
</defs>
</svg>
